<svg width="600" height="800" xmlns="http://www.w3.org/2000/svg">
  <defs>
    <filter id="paper">
      <feTurbulence baseFrequency="0.04" numOctaves="3" result="noise" seed="1"/>
      <feDisplacementMap in="SourceGraphic" in2="noise" scale="1"/>
    </filter>
    <filter id="ink">
      <feTurbulence baseFrequency="0.9" numOctaves="4" result="noise" seed="6"/>
      <feDisplacementMap in="SourceGraphic" in2="noise" scale="0.6"/>
      <feGaussianBlur stdDeviation="0.2"/>
    </filter>
  </defs>
  
  <!-- Paper background -->
  <rect width="100%" height="100%" fill="#F5F3E7" filter="url(#paper)"/>
  
  <!-- Handwritten lyrics -->
  <g filter="url(#ink)" font-family="cursive" font-size="16" fill="#2C2C2C" stroke="#2C2C2C" stroke-width="0.3">
    
    <!-- Title -->
    <text x="50" y="40" font-size="24" font-weight="bold" transform="rotate(-0.5 50 40)">다 니맘때로</text>
    <line x1="50" y1="50" x2="220" y2="47" stroke-width="2"/>
    
    <!-- Lyrics - Dialect conversation style -->
    <text x="60" y="90" transform="rotate(0.2 60 90)">마 사람이 그러면 안 된다.</text>
    
    <text x="80" y="130" transform="rotate(-0.4 80 130)">어? 마 마이 쉐끼야</text>
    
    <text x="50" y="170" transform="rotate(0.6 50 170)">아따 이 마 새끼 안 되걠네</text>
    
    <text x="90" y="210" transform="rotate(-0.3 90 210)">니 미쳤나</text>
    
    <text x="40" y="250" transform="rotate(0.5 40 250)">사람이 그러면 안 되지</text>
    
    <text x="70" y="290" transform="rotate(-0.2 70 290)">다 알고 있잖아</text>
    
    <text x="100" y="330" transform="rotate(0.4 100 330)">도대체 왜 그래</text>
    
    <text x="35" y="370" transform="rotate(-0.5 35 370)">마 사람들한테 부끄럽지도 않아?</text>
    
    <text x="60" y="410" transform="rotate(0.3 60 410)">아따 이 새끼 미친놈이네 이거</text>
    
    <text x="120" y="450" transform="rotate(-0.4 120 450)">그래서 우얼라꿀</text>
    
    <text x="80" y="490" transform="rotate(0.2 80 490)">어케 살라고</text>
    
    <text x="45" y="530" font-weight="bold" transform="rotate(-0.1 45 530)">그래그래 니 맘대로 해</text>
    
    <text x="70" y="570" font-size="20" font-weight="bold" transform="rotate(0.5 70 570)">다 니맘대로해!</text>
    
    <text x="55" y="130" transform="rotate(-0.3 55 130)">날이 가면 갈수록 없어지는 웃음이</text>
    
    <text x="65" y="170" transform="rotate(0.8 65 170)">무서워 무서워</text>
    
    <text x="50" y="220" transform="rotate(-0.2 50 220)">걷다 보면 보이는 모든 것들에게</text>
    <text x="55" y="250" transform="rotate(0.4 55 250)">무슨 말을 할까 고민해 보지만</text>
    
    <text x="70" y="290" transform="rotate(-0.6 70 290)">두려워 두려워 두려워</text>
    
    <text x="45" y="340" transform="rotate(0.2 45 340)">날이 가면 갈수록 없어지는 말들이</text>
    
    <text x="60" y="380" transform="rotate(-0.4 60 380)">날이 가면 갈수록 없어지는 웃음이</text>
    
    <text x="55" y="420" font-weight="bold" transform="rotate(0.7 55 420)">괴로워 괴로워 괴로워</text>
    
    <!-- Signature -->
    <text x="400" y="720" font-size="14" font-style="italic" transform="rotate(-2 400 720)">- 하루살이 프로젝트</text>
    
    <!-- Decorative elements -->
    <path d="M 20 200 Q 30 190 40 200" fill="none" stroke="#8B7AAE" stroke-width="1.5" opacity="0.6"/>
    <circle cx="500" cy="150" r="3" fill="#E5A45C" opacity="0.7"/>
    <path d="M 520 350 L 530 340 L 540 350 L 530 360 Z" fill="#A8C5D1" opacity="0.5"/>
  </g>
</svg>